<?xml version="1.0" encoding="UTF-8"?>
<svg version="1.1" xmlns="http://www.w3.org/2000/svg" width="512" height="512">
<path d="M0 0 C1.21236328 -0.05607422 1.21236328 -0.05607422 2.44921875 -0.11328125 C7.72533155 0.6712976 11.77586286 2.41041723 15.13334656 6.56638336 C16.36845686 8.44101078 17.58246324 10.32964134 18.77987671 12.22856903 C31.34299345 31.95952812 48.66914586 51.39667537 72.28019142 56.75803137 C103.89373452 62.85763337 136.87349365 61.49719105 168.92682862 60.78554338 C179.21028507 60.56189766 189.46509451 60.60275273 199.74804688 60.83105469 C268.04812889 65.25493995 268.04812889 65.25493995 327.24762154 37.88229299 C335.93928234 29.29311725 343.215331 19.57076202 349.71875 9.25726318 C352.99323385 4.28565001 355.73219711 2.32657735 361.3125 0.3125 C365.95186172 -0.5220594 370.0971914 -0.08481243 374.5625 1.375 C379.8887635 5.12759474 384.13066042 9.74672454 385.3125 16.3125 C385.39129548 22.44729115 384.13341361 27.39825676 380.3125 32.3125 C377.77494505 34.50973308 375.12279453 36.47367613 372.4147644 38.45683289 C354.26914586 51.82429291 332.66650727 68.2447283 328.91113281 91.74853516 C325.762761 115.62562628 327.84473409 140.44985803 330.3125 164.3125 C331.09653198 164.30805878 331.88056396 164.30361755 332.68835449 164.29904175 C340.10279186 164.25884946 347.51717587 164.22845711 354.93169403 164.20887566 C358.7429217 164.19846999 362.55405881 164.1843701 366.36523438 164.16162109 C370.04810976 164.13977726 373.73089842 164.12790721 377.41383362 164.12274551 C378.81394311 164.11907036 380.21404824 164.11189405 381.61412048 164.10103989 C400.75125985 163.95867374 400.75125985 163.95867374 407.8359375 170.6875 C412.04173593 175.31610356 412.87544931 179.7115088 412.65625 185.78515625 C411.98992278 190.68417571 410.26779407 194.52607224 406.59375 197.8828125 C401.65776579 201.54297028 397.90941556 202.43744809 391.72973633 202.42602539 C391.06605545 202.42617142 390.40237457 202.42631744 389.71858215 202.4264679 C387.52719848 202.42577182 385.33590005 202.4179937 383.14453125 202.41015625 C381.62424262 202.40829099 380.10395339 202.40686759 378.58366394 202.40586853 C374.58385557 202.40205188 370.58408356 202.39222885 366.58428955 202.38116455 C362.50216158 202.37093213 358.42002773 202.36636698 354.33789062 202.36132812 C346.32941041 202.35060583 338.32095973 202.33353961 330.3125 202.3125 C330.31553635 203.05018616 330.31857269 203.78787231 330.32170105 204.5479126 C330.32524345 206.01354645 330.32524345 206.01354645 330.32885742 207.50878906 C330.33189377 208.47335022 330.33493011 209.43791138 330.33805847 210.43170166 C330.12479447 234.46954627 325.28033645 260.39106414 313 281.296875 C312.09555672 283.27268572 312.09555672 283.27268572 312.92555237 285.08328247 C314.82098585 288.12978073 317.26666254 290.50331971 319.81616211 292.99560547 C320.37734238 293.55225891 320.93852264 294.10891235 321.51670837 294.68243408 C322.73350422 295.88828782 323.95256707 297.09185735 325.17362785 298.29339218 C327.10779619 300.19735962 329.03517875 302.10796027 330.96083069 304.02053833 C336.43636815 309.45635729 341.92447256 314.87942516 347.41577148 320.29931641 C350.77657785 323.61734038 354.12998969 326.94269665 357.47918892 330.27243423 C358.75489041 331.53758762 360.03349717 332.79981864 361.31507683 334.05901718 C363.11009158 335.8227365 364.89562202 337.59557598 366.67944336 339.37060547 C367.20785828 339.88509247 367.73627319 340.39957947 368.28070068 340.92965698 C373.15248444 345.81372512 375.74087295 350.30431618 375.75 357.25 C375.56249351 364.12807904 373.92250028 367.77118393 368.9375 372.625 C363.8520688 375.89420577 359.32800107 376.84017553 353.3125 376.3125 C346.99020991 374.24297339 343.38736548 370.85132401 338.875 366.0625 C337.62895709 364.76307385 336.38025415 363.46619323 335.12890625 362.171875 C334.31595093 361.31287598 334.31595093 361.31287598 333.48657227 360.43652344 C331.57716486 358.57107207 329.6221176 356.8344933 327.60131836 355.0925293 C323.16505778 351.23833683 319.01422136 347.1413736 314.875 342.97265625 C314.10945801 342.20569931 313.34391602 341.43874237 312.55517578 340.64854431 C310.13856803 338.22639119 307.72548274 335.80076388 305.3125 333.375 C303.66299314 331.72047107 302.01325571 330.06617198 300.36328125 328.41210938 C296.34368629 324.38155798 292.32696831 320.34815728 288.3125 316.3125 C285.16297426 317.8314776 282.32732607 319.60793648 279.44165039 321.58691406 C255.290458 338.14163552 231.02882764 348.3125 201.3125 348.3125 C201.3125 263.8325 201.3125 179.3525 201.3125 92.3125 C189.4325 92.3125 177.5525 92.3125 165.3125 92.3125 C165.3125 176.7925 165.3125 261.2725 165.3125 348.3125 C148.92980628 348.3125 148.92980628 348.3125 142.125 346.75 C140.93390625 346.48328491 140.93390625 346.48328491 139.71875 346.21118164 C115.38109606 340.45973409 94.60376221 327.93771054 75.3125 312.3125 C70.04353032 317.95571425 64.81920096 323.58735955 60 329.625 C56.30201922 334.22589889 52.36527185 338.52743448 48.3125 342.8125 C44.24009586 347.11857111 40.28396302 351.44366291 36.5625 356.0625 C20.97696162 375.37125033 20.97696162 375.37125033 9.75 376.75 C2.44592202 375.82039007 -1.90102018 373.81831689 -6.55859375 368.03125 C-8.80227436 364.61526568 -8.87748442 361.47603225 -8.9375 357.5 C-8.96328125 356.48292969 -8.9890625 355.46585937 -9.015625 354.41796875 C-8.33945868 348.0185375 -4.754727 343.92558962 -0.4375 339.4375 C0.5553688 338.38084809 1.54755711 337.32355636 2.5390625 336.265625 C3.01762695 335.75837891 3.49619141 335.25113281 3.98925781 334.72851562 C5.68143962 332.91769376 7.3152613 331.06107145 8.9375 329.1875 C11.52959829 326.19852542 14.16136006 323.24928465 16.8125 320.3125 C19.50233431 317.33187279 22.17560364 314.34004767 24.8125 311.3125 C27.44939636 308.28495233 30.12266569 305.29312721 32.8125 302.3125 C36.11160073 298.65553072 39.3924824 294.98639373 42.6015625 291.25 C43.80896318 289.88271522 45.05850439 288.55209398 46.3359375 287.25 C46.98820312 286.569375 47.64046875 285.88875 48.3125 285.1875 C49.2096875 284.28644531 49.2096875 284.28644531 50.125 283.3671875 C51.56829385 281.29893549 51.56829385 281.29893549 51.171875 278.484375 C50.24052306 275.04683964 48.99123784 271.95003022 47.5625 268.6875 C39.57118824 249.56889201 36.26700038 228.23650886 36.30322266 207.59838867 C36.30456207 206.60836349 36.30590149 205.61833832 36.30728149 204.59831238 C36.3090036 203.84399429 36.31072571 203.08967621 36.3125 202.3125 C35.47835571 202.32138245 34.64421143 202.33026489 33.78479004 202.3394165 C25.89948597 202.41977475 18.01432067 202.48057187 10.12870026 202.51974869 C6.07520489 202.54056754 2.02204966 202.56877957 -2.03125 202.61425781 C-5.9475689 202.65792098 -9.86356194 202.68167994 -13.78010559 202.69200897 C-15.26956812 202.69936386 -16.7590141 202.71372599 -18.24833679 202.73542023 C-26.27751936 202.84765891 -32.80963038 202.89364193 -39.6875 198.3125 C-41.52734375 196.49609375 -41.52734375 196.49609375 -42.625 194.75 C-43.00527344 194.17121094 -43.38554688 193.59242188 -43.77734375 192.99609375 C-46.30063855 188.32853985 -46.36788576 183.47272909 -45.6875 178.3125 C-43.6140804 173.26230371 -40.37645727 169.14768347 -35.6875 166.3125 C-28.18425733 163.79297345 -20.74726761 164.05639941 -12.90625 164.1171875 C-11.48279012 164.12092394 -10.05932764 164.12376793 -8.63586426 164.12576294 C-4.91390716 164.13334975 -1.19210953 164.15295481 2.52978516 164.1751709 C6.33754317 164.19573686 10.14532729 164.2047875 13.953125 164.21484375 C21.4063222 164.23620611 28.85938864 164.27028115 36.3125 164.3125 C37.66691197 151.54147941 38.52349185 138.77401476 38.9375 125.9375 C38.9679818 124.99360538 38.99846359 124.04971077 39.02986908 123.07721329 C39.68466388 98.7862594 38.07604518 79.54502261 20.91708374 61.30096436 C12.43756235 52.64645392 3.00484669 44.67738797 -6.75061035 37.49598694 C-7.74798218 36.7602092 -8.745354 36.02443146 -9.77294922 35.26635742 C-10.65151581 34.64178146 -11.5300824 34.01720551 -12.43527222 33.373703 C-16.84813239 29.33512365 -18.30126154 24.39745831 -18.73828125 18.609375 C-18.6273744 13.59297305 -17.23489403 9.97570731 -13.80859375 6.29296875 C-9.3446119 2.25647687 -6.13122647 0.18287803 0 0 Z " fill="#07A307" transform="translate(72.6875,90.6875)"/>
<path d="M0 0 C20.2459592 16.94709684 31.30351652 37.05264445 34.875 63.1875 C34.875 66.4875 34.875 69.7875 34.875 73.1875 C-25.845 73.1875 -86.565 73.1875 -149.125 73.1875 C-149.125 46.68136383 -139.60127392 25.04052364 -121.25 6 C-88.68640146 -25.62616162 -35.65841065 -27.59215551 0 0 Z " fill="#07A307" transform="translate(313.125,36.8125)"/>
</svg>
